<svg width="25" height="25" viewBox="0 0 25 25" fill="none" xmlns="http://www.w3.org/2000/svg">
<path d="M19.7151 12.9287C19.7651 12.807 19.7651 12.6704 19.7151 12.5487C19.6938 12.4863 19.6558 12.431 19.6051 12.3887L13.6051 6.38872C13.5123 6.29589 13.3864 6.24374 13.2551 6.24374C13.1239 6.24374 12.998 6.29589 12.9051 6.38872C12.8123 6.48154 12.7602 6.60744 12.7602 6.73872C12.7602 6.86999 12.8123 6.99589 12.9051 7.08872L18.0451 12.2387H5.25513C5.12252 12.2387 4.99534 12.2914 4.90157 12.3852C4.80781 12.4789 4.75513 12.6061 4.75513 12.7387C4.75513 12.8713 4.80781 12.9985 4.90157 13.0923C4.99534 13.186 5.12252 13.2387 5.25513 13.2387H18.0451L12.9051 18.3887C12.8573 18.4336 12.8192 18.4878 12.7931 18.548C12.7671 18.6082 12.7536 18.6731 12.7536 18.7387C12.7536 18.8043 12.7671 18.8692 12.7931 18.9294C12.8192 18.9896 12.8573 19.0438 12.9051 19.0887C12.95 19.1365 13.0042 19.1747 13.0644 19.2007C13.1246 19.2268 13.1895 19.2402 13.2551 19.2402C13.3207 19.2402 13.3856 19.2268 13.4458 19.2007C13.506 19.1747 13.5602 19.1365 13.6051 19.0887L19.6051 13.0887C19.6558 13.0465 19.6938 12.9911 19.7151 12.9287Z" fill="white" stroke="white"/>
</svg>
