<svg width="26" height="25" viewBox="0 0 26 25" fill="none" xmlns="http://www.w3.org/2000/svg">
<path d="M21.5989 14.8422C21.739 14.8414 21.875 14.7944 21.9857 14.7085C22.0964 14.6227 22.1757 14.5027 22.2114 14.3672L24.7114 4.36724C24.7322 4.274 24.7317 4.1773 24.7101 4.08426C24.6885 3.99123 24.6462 3.90424 24.5864 3.82974C24.5289 3.75538 24.4549 3.69528 24.3704 3.6541C24.2859 3.61291 24.193 3.59174 24.0989 3.59224H5.69894L5.34894 1.54224C5.31801 1.40213 5.24072 1.27655 5.12957 1.18581C5.01841 1.09508 4.8799 1.04449 4.73644 1.04224H1.59894C1.43318 1.04224 1.27421 1.10808 1.157 1.22529C1.03979 1.3425 0.973938 1.50148 0.973938 1.66724C0.973938 1.833 1.03979 1.99197 1.157 2.10918C1.27421 2.22639 1.43318 2.29224 1.59894 2.29224H4.16144L6.59894 14.1672L3.64894 20.0922C3.59964 20.1868 3.5739 20.2919 3.5739 20.3985C3.5739 20.5051 3.59964 20.6102 3.64894 20.7047C3.70541 20.7928 3.78306 20.8652 3.87478 20.9154C3.9665 20.9657 4.06936 20.9921 4.17394 20.9922H21.5989C21.7647 20.9922 21.9237 20.9264 22.0409 20.8092C22.1581 20.692 22.2239 20.533 22.2239 20.3672C22.2239 20.2015 22.1581 20.0425 22.0409 19.9253C21.9237 19.8081 21.7647 19.7422 21.5989 19.7422H5.21144L7.61144 14.8422H21.5989ZM23.2739 4.84224L21.1114 13.5922H7.74894L5.96144 4.84224H23.2739ZM7.84894 21.6672C7.60171 21.6672 7.36004 21.7405 7.15447 21.8779C6.94891 22.0152 6.7887 22.2105 6.69409 22.4389C6.59948 22.6673 6.57472 22.9186 6.62296 23.1611C6.67119 23.4036 6.79024 23.6263 6.96505 23.8011C7.13987 23.9759 7.3626 24.095 7.60508 24.1432C7.84755 24.1914 8.09889 24.1667 8.32729 24.0721C8.5557 23.9775 8.75092 23.8173 8.88827 23.6117C9.02563 23.4061 9.09894 23.1645 9.09894 22.9172C9.09894 22.5857 8.96724 22.2678 8.73282 22.0334C8.4984 21.7989 8.18046 21.6672 7.84894 21.6672ZM17.8489 21.6672C17.6017 21.6672 17.36 21.7405 17.1545 21.8779C16.9489 22.0152 16.7887 22.2105 16.6941 22.4389C16.5995 22.6673 16.5747 22.9186 16.623 23.1611C16.6712 23.4036 16.7902 23.6263 16.9651 23.8011C17.1399 23.9759 17.3626 24.095 17.6051 24.1432C17.8476 24.1914 18.0989 24.1667 18.3273 24.0721C18.5557 23.9775 18.7509 23.8173 18.8883 23.6117C19.0256 23.4061 19.0989 23.1645 19.0989 22.9172C19.0989 22.5857 18.9672 22.2678 18.7328 22.0334C18.4984 21.7989 18.1805 21.6672 17.8489 21.6672Z" fill="#211E22" stroke="#211E22" stroke-width="1.25"/>
</svg>
