<?xml version="1.0" encoding="UTF-8"?>
<!DOCTYPE svg PUBLIC "-//W3C//DTD SVG 1.1//EN" "http://www.w3.org/Graphics/SVG/1.1/DTD/svg11.dtd">
<svg xmlns="http://www.w3.org/2000/svg" version="1.1" width="83px" height="77px" style="shape-rendering:geometricPrecision; text-rendering:geometricPrecision; image-rendering:optimizeQuality; fill-rule:evenodd; clip-rule:evenodd" xmlns:xlink="http://www.w3.org/1999/xlink">
<g><path style="opacity:0.999" fill="#2e2b2f" d="M 71.5,14.5 C 72.4567,25.7825 72.79,37.1159 72.5,48.5C 71.405,51.7348 69.0717,53.5682 65.5,54C 49.4818,54.6661 33.4818,54.3328 17.5,53C 15.6711,52.7265 14.1711,51.8932 13,50.5C 11.1324,38.4932 11.1324,26.4932 13,14.5C 13.9025,13.2986 15.0692,12.4652 16.5,12C 33.8333,11.3333 51.1667,11.3333 68.5,12C 69.9423,12.3768 70.9423,13.2101 71.5,14.5 Z M 20.5,24.5 C 20.1667,23.5 19.5,22.8333 18.5,22.5C 18.5,20.8333 18.5,19.1667 18.5,17.5C 34.5,17.5 50.5,17.5 66.5,17.5C 66.9167,20.0792 66.25,22.2458 64.5,24C 49.8371,24.4999 35.1705,24.6666 20.5,24.5 Z M 23.5,30.5 C 37.504,30.3334 51.504,30.5001 65.5,31C 66.6389,36.4162 66.8056,41.9162 66,47.5C 51.2331,46.4954 36.3997,46.4954 21.5,47.5C 19.6301,42.4682 18.9634,37.1348 19.5,31.5C 21.099,31.7678 22.4324,31.4345 23.5,30.5 Z"/></g>
<g><path style="opacity:0.014" fill="#fafafa" d="M 71.5,14.5 C 72.1174,14.6107 72.6174,14.944 73,15.5C 73.8257,26.6745 73.659,37.6745 72.5,48.5C 72.79,37.1159 72.4567,25.7825 71.5,14.5 Z"/></g>
<g><path style="opacity:0.004" fill="#fefffe" d="M 18.5,22.5 C 19.5,22.8333 20.1667,23.5 20.5,24.5C 19.1667,24.5 18.5,23.8333 18.5,22.5 Z"/></g>
<g><path style="opacity:0.009" fill="#fefffe" d="M 23.5,30.5 C 22.4324,31.4345 21.099,31.7678 19.5,31.5C 18.9634,37.1348 19.6301,42.4682 21.5,47.5C 20.5,47.5 19.5,47.5 18.5,47.5C 18.5,41.8333 18.5,36.1667 18.5,30.5C 20.1667,30.5 21.8333,30.5 23.5,30.5 Z"/></g>
</svg>
