<?xml version="1.0" standalone="no"?>
<!DOCTYPE svg PUBLIC "-//W3C//DTD SVG 20010904//EN"
 "http://www.w3.org/TR/2001/REC-SVG-20010904/DTD/svg10.dtd">
<svg version="1.0" xmlns="http://www.w3.org/2000/svg"
 width="114.000000pt" height="88.000000pt" viewBox="0 0 114.000000 88.000000"
 preserveAspectRatio="xMidYMid meet">

<g transform="translate(0.000000,88.000000) scale(0.100000,-0.100000)"
fill="#000000" stroke="none">
<path d="M461 695 c-36 -8 -69 -19 -74 -24 -6 -6 -5 -33 2 -73 17 -99 18 -97
-41 -100 -49 -3 -53 -5 -53 -28 0 -18 6 -26 22 -28 19 -3 22 -12 28 -85 8 -94
19 -127 38 -127 11 0 14 -14 13 -57 -1 -47 2 -58 16 -61 20 -4 33 22 43 80 l6
38 129 0 129 0 7 -50 c7 -54 24 -76 50 -66 13 5 16 17 12 61 -4 42 -1 55 9 55
19 0 30 34 38 127 6 73 9 82 28 85 16 2 22 10 22 28 0 23 -4 25 -54 28 l-53 3
8 57 c15 112 14 114 -36 129 -69 21 -214 25 -289 8z m217 -54 c23 -5 46 -11
49 -15 6 -6 -13 -154 -23 -179 -3 -8 -40 -12 -116 -11 l-113 0 -16 97 -16 97
41 9 c53 11 139 12 194 2z m-258 -211 c0 -5 -4 -10 -10 -10 -5 0 -10 5 -10 10
0 6 5 10 10 10 6 0 10 -4 10 -10z m328 -66 c17 -5 22 -14 22 -40 l0 -34 -180
0 -180 0 0 35 c0 32 3 35 38 40 20 4 42 8 47 11 14 6 226 -4 253 -12z"/>
</g>
</svg>
