<?xml version="1.0" encoding="UTF-8"?>
<!DOCTYPE svg PUBLIC "-//W3C//DTD SVG 1.1//EN" "http://www.w3.org/Graphics/SVG/1.1/DTD/svg11.dtd">
<svg xmlns="http://www.w3.org/2000/svg" version="1.1" width="77px" height="63px" style="shape-rendering:geometricPrecision; text-rendering:geometricPrecision; image-rendering:optimizeQuality; fill-rule:evenodd; clip-rule:evenodd" xmlns:xlink="http://www.w3.org/1999/xlink">
<g><path style="opacity:1" fill="#3a313d" d="M 44.5,-0.5 C 46.5,-0.5 48.5,-0.5 50.5,-0.5C 50.5,0.833333 50.5,2.16667 50.5,3.5C 55.1871,4.50626 57.1871,7.50626 56.5,12.5C 54.1667,12.5 51.8333,12.5 49.5,12.5C 49.1662,9.72522 47.8329,9.05855 45.5,10.5C 45.8555,11.5223 46.5222,12.189 47.5,12.5C 49.3024,13.4582 51.3024,14.1249 53.5,14.5C 58.2016,18.2112 58.7016,22.5445 55,27.5C 54.3292,28.2524 53.4959,28.5858 52.5,28.5C 51.5,28.5 50.5,28.5 49.5,28.5C 49.5,29.8333 49.5,31.1667 49.5,32.5C 48.1667,32.5 46.8333,32.5 45.5,32.5C 45.5,31.1667 45.5,29.8333 45.5,28.5C 44.5,28.5 43.5,28.5 42.5,28.5C 39.039,26.5847 37.3723,23.5847 37.5,19.5C 39.8333,19.5 42.1667,19.5 44.5,19.5C 45.344,21.7593 47.0107,22.7593 49.5,22.5C 50.8852,21.0527 50.5518,20.0527 48.5,19.5C 46.4855,18.0762 44.1522,17.4095 41.5,17.5C 37.3755,14.6643 36.5421,10.9976 39,6.5C 40.2635,4.39297 42.0968,3.39297 44.5,3.5C 44.5,2.16667 44.5,0.833333 44.5,-0.5 Z M 49.5,12.5 C 48.8333,12.5 48.1667,12.5 47.5,12.5C 46.5222,12.189 45.8555,11.5223 45.5,10.5C 47.8329,9.05855 49.1662,9.72522 49.5,12.5 Z M 44.5,19.5 C 45.8333,19.5 47.1667,19.5 48.5,19.5C 49.1098,20.391 49.4431,21.391 49.5,22.5C 47.0107,22.7593 45.344,21.7593 44.5,19.5 Z"/></g>
<g><path style="opacity:0.253" fill="#c3c0c4" d="M 47.5,12.5 C 48.1667,12.5 48.8333,12.5 49.5,12.5C 51.8333,12.5 54.1667,12.5 56.5,12.5C 55.5,13.1667 54.5,13.8333 53.5,14.5C 51.3024,14.1249 49.3024,13.4582 47.5,12.5 Z"/></g>
<g><path style="opacity:0.827" fill="#817b83" d="M 41.5,17.5 C 44.1522,17.4095 46.4855,18.0762 48.5,19.5C 47.1667,19.5 45.8333,19.5 44.5,19.5C 43.5,18.8333 42.5,18.1667 41.5,17.5 Z"/></g>
<g><path style="opacity:0.18" fill="#bab7bb" d="M 48.5,19.5 C 50.5518,20.0527 50.8852,21.0527 49.5,22.5C 49.4431,21.391 49.1098,20.391 48.5,19.5 Z"/></g>
<g><path style="opacity:1" fill="#3f3742" d="M 44.5,40.5 C 44.5,41.8333 44.5,43.1667 44.5,44.5C 49.1667,44.5 53.8333,44.5 58.5,44.5C 62.6294,44.9652 64.6294,47.2985 64.5,51.5C 64.9529,55.4306 63.2862,57.9306 59.5,59C 46.8333,59.6667 34.1667,59.6667 21.5,59C 16.6242,55.0621 11.2909,51.8955 5.5,49.5C 4.27493,46.2949 5.4416,44.2949 9,43.5C 14.3227,45.4875 19.1561,48.3208 23.5,52C 35.5139,52.8326 47.5139,52.6659 59.5,51.5C 51.1628,50.5455 42.8295,50.3788 34.5,51C 30.8333,48.6667 27.8333,45.6667 25.5,42C 26.0979,39.952 27.4312,38.7853 29.5,38.5C 32.2376,39.7283 34.5709,41.5617 36.5,44C 37.1667,44.6667 37.8333,44.6667 38.5,44C 35.931,41.5206 33.5977,38.854 31.5,36C 23.1667,35.6667 14.8333,35.3333 6.5,35C 3.83333,33 3.83333,31 6.5,29C 15.5,28.3333 24.5,28.3333 33.5,29C 38.0447,32.0435 41.7113,35.8769 44.5,40.5 Z"/></g>
<g><path style="opacity:0.735" fill="#746f77" d="M 42.5,28.5 C 43.5,28.5 44.5,28.5 45.5,28.5C 45.5,29.8333 45.5,31.1667 45.5,32.5C 46.8333,32.5 48.1667,32.5 49.5,32.5C 49.5,31.1667 49.5,29.8333 49.5,28.5C 50.5,28.5 51.5,28.5 52.5,28.5C 51.032,29.7791 50.3653,31.4458 50.5,33.5C 48.5,33.5 46.5,33.5 44.5,33.5C 44.6347,31.4458 43.968,29.7791 42.5,28.5 Z"/></g>
<g><path style="opacity:0.429" fill="#a4a0a6" d="M 44.5,40.5 C 45.404,41.209 45.7373,42.209 45.5,43.5C 50.0323,43.1818 54.3656,43.5151 58.5,44.5C 53.8333,44.5 49.1667,44.5 44.5,44.5C 44.5,43.1667 44.5,41.8333 44.5,40.5 Z"/></g>
</svg>
