<?xml version="1.0" encoding="UTF-8"?>
<!DOCTYPE svg PUBLIC "-//W3C//DTD SVG 1.1//EN" "http://www.w3.org/Graphics/SVG/1.1/DTD/svg11.dtd">
<svg xmlns="http://www.w3.org/2000/svg" version="1.1" width="81px" height="86px" style="shape-rendering:geometricPrecision; text-rendering:geometricPrecision; image-rendering:optimizeQuality; fill-rule:evenodd; clip-rule:evenodd" xmlns:xlink="http://www.w3.org/1999/xlink">
<g><path style="opacity:0.999" fill="#080808" d="M 28.5,16.5 C 31.4822,16.1044 34.1489,16.7711 36.5,18.5C 42.3039,15.1588 47.1372,16.1588 51,21.5C 51.4966,23.8098 51.6633,26.1432 51.5,28.5C 55.5138,28.3345 59.5138,28.5012 63.5,29C 64.3333,29.8333 65.1667,30.6667 66,31.5C 66.6667,41.5 66.6667,51.5 66,61.5C 65.1667,62.3333 64.3333,63.1667 63.5,64C 59.3243,64.4269 55.1576,64.9269 51,65.5C 40.8031,64.897 30.6364,64.2303 20.5,63.5C 19.8076,62.9747 19.3076,62.3081 19,61.5C 18.3333,51.5 18.3333,41.5 19,31.5C 19.6667,30.8333 20.3333,30.1667 21,29.5C 21.3333,26.8333 21.6667,24.1667 22,21.5C 24.352,19.9697 26.5187,18.3031 28.5,16.5 Z M 29.5,22.5 C 34.1972,23.8743 34.5305,25.8743 30.5,28.5C 27.025,26.9158 26.6917,24.9158 29.5,22.5 Z M 41.5,22.5 C 46.1972,23.8743 46.5305,25.8743 42.5,28.5C 39.025,26.9158 38.6917,24.9158 41.5,22.5 Z M 24.5,34.5 C 26.5,34.5 28.5,34.5 30.5,34.5C 30.5,35.5 30.5,36.5 30.5,37.5C 28.5,37.5 26.5,37.5 24.5,37.5C 24.5,36.5 24.5,35.5 24.5,34.5 Z M 36.5,34.5 C 44.5,34.5 52.5,34.5 60.5,34.5C 60.5,35.5 60.5,36.5 60.5,37.5C 52.5,37.5 44.5,37.5 36.5,37.5C 36.5,36.5 36.5,35.5 36.5,34.5 Z M 24.5,46.5 C 26.5,46.5 28.5,46.5 30.5,46.5C 30.5,50.5 30.5,54.5 30.5,58.5C 28.5,58.5 26.5,58.5 24.5,58.5C 24.5,54.5 24.5,50.5 24.5,46.5 Z M 36.5,46.5 C 44.5,46.5 52.5,46.5 60.5,46.5C 60.5,50.5 60.5,54.5 60.5,58.5C 52.5,58.5 44.5,58.5 36.5,58.5C 36.5,54.5 36.5,50.5 36.5,46.5 Z"/></g>
</svg>
