<svg width="151" height="34" viewBox="0 0 151 34" fill="none" xmlns="http://www.w3.org/2000/svg">
<g clip-path="url(#clip0_5_760)">
<path d="M52.7106 8.4585H46.1094C45.8211 8.45881 45.5448 8.5734 45.341 8.77715C45.1372 8.98089 45.0226 9.25714 45.0222 9.54527V11.0197C45.0277 11.2084 45.1066 11.3876 45.2421 11.519C45.3777 11.6505 45.5593 11.7238 45.7482 11.7234H46.8364C46.8524 11.7232 46.8682 11.7269 46.8825 11.7341C46.8968 11.7414 46.9091 11.7519 46.9184 11.765C46.93 11.7815 46.9377 11.8005 46.9409 11.8205C46.9441 11.8405 46.9427 11.861 46.9368 11.8803L44.3529 19.6285C44.3412 19.6521 44.3228 19.6718 44.3001 19.6851C44.2773 19.6985 44.2511 19.7048 44.2248 19.7035C44.202 19.7051 44.1794 19.6983 44.1611 19.6846C44.1429 19.6708 44.1302 19.6509 44.1255 19.6285L40.2652 9.15071V9.14494C40.2134 9.01829 40.1271 8.90869 40.0161 8.82856C39.9052 8.74843 39.774 8.70096 39.6374 8.69154H37.3062C37.1687 8.69891 37.0361 8.74479 36.9234 8.82395C36.8108 8.9031 36.7227 9.01234 36.6692 9.13917V9.14494L32.8089 19.6285C32.8049 19.6522 32.7924 19.6737 32.7737 19.6888C32.755 19.7039 32.7313 19.7116 32.7073 19.7104C32.681 19.7118 32.6548 19.7054 32.632 19.6921C32.6093 19.6787 32.5909 19.659 32.5792 19.6354L29.9941 11.8815C29.9883 11.862 29.9872 11.8414 29.9908 11.8213C29.9944 11.8013 30.0027 11.7824 30.0149 11.7661C30.0239 11.753 30.036 11.7424 30.0501 11.7352C30.0642 11.7279 30.0798 11.7243 30.0957 11.7246H31.1851C31.374 11.725 31.5555 11.6516 31.6911 11.5202C31.8267 11.3887 31.9056 11.2096 31.911 11.0208V9.54527C31.9107 9.25694 31.7959 8.98051 31.5919 8.77674C31.3878 8.57296 31.1112 8.4585 30.8227 8.4585H24.2215C24.1066 8.45817 23.9932 8.48546 23.891 8.53806C23.7888 8.59066 23.7007 8.66704 23.6341 8.76077C23.5703 8.84686 23.5277 8.94675 23.5096 9.05237C23.4916 9.15799 23.4987 9.26637 23.5303 9.36876C23.6237 9.63757 23.7345 9.96175 23.8465 10.2917C23.9584 10.6217 24.0657 10.9389 24.1661 11.2285C24.2121 11.3701 24.3013 11.4937 24.4211 11.582C24.541 11.6704 24.6855 11.719 24.8343 11.7211H25.9457C25.9711 11.7211 26.0276 11.7211 26.0761 11.81L31.1967 26.8967C31.242 27.0389 31.3309 27.1632 31.4508 27.252C31.5707 27.3408 31.7156 27.3897 31.8649 27.3916H33.4528C33.5975 27.391 33.7385 27.3466 33.8574 27.2642C33.9763 27.1818 34.0674 27.0653 34.1187 26.9301C35.5324 22.8484 38.2295 15.0703 38.3356 14.8049C38.3431 14.7762 38.3601 14.7508 38.3837 14.7328C38.4073 14.7148 38.4363 14.7053 38.4661 14.7057C38.4943 14.7046 38.5221 14.7128 38.5453 14.7291C38.5684 14.7454 38.5856 14.7687 38.5942 14.7957C38.7026 15.0703 41.4008 22.8484 42.8122 26.9244C42.8625 27.0615 42.9534 27.18 43.0728 27.2641C43.1922 27.3482 43.3344 27.3939 43.4804 27.3951H45.0673C45.2168 27.3931 45.362 27.3442 45.4821 27.2551C45.6022 27.1661 45.6913 27.0415 45.7366 26.899L50.856 11.8123C50.9056 11.7234 50.9622 11.7234 50.9876 11.7234H52.0989C52.2469 11.7215 52.3906 11.6735 52.51 11.586C52.6294 11.4985 52.7185 11.3759 52.7648 11.2354C52.8652 10.9435 52.976 10.6182 53.0833 10.3009C53.1987 9.96637 53.3084 9.63872 53.4007 9.37106C53.4334 9.26851 53.4412 9.15963 53.4233 9.05348C53.4054 8.94732 53.3625 8.84697 53.298 8.76077C53.2315 8.66697 53.1434 8.59054 53.0412 8.53793C52.939 8.48532 52.8256 8.45808 52.7106 8.4585ZM129.986 24.3517H128.784C128.694 24.3499 128.609 24.3134 128.545 24.2499C128.482 24.1865 128.446 24.1009 128.444 24.0113V9.13802C128.443 9.07384 128.43 9.01051 128.404 8.95172C128.378 8.89294 128.341 8.83987 128.294 8.79563C128.248 8.75138 128.193 8.71684 128.133 8.69402C128.073 8.6712 128.009 8.66055 127.945 8.6627H124.452C124.379 8.66387 124.307 8.68062 124.24 8.71185C124.174 8.74307 124.115 8.78806 124.067 8.84383C123.885 9.07457 122.978 10.204 122.615 10.6574C122.559 10.7282 122.524 10.813 122.513 10.9026C122.502 10.9921 122.516 11.0829 122.554 11.1649C122.591 11.247 122.651 11.3171 122.725 11.3676C122.8 11.4181 122.887 11.447 122.978 11.4512H123.431C123.521 11.4555 123.605 11.4926 123.669 11.5553C123.733 11.6181 123.772 11.7022 123.777 11.7915V23.9663C123.772 24.0653 123.74 24.161 123.685 24.2432C123.298 24.7416 122.459 25.7845 122.052 26.306C121.99 26.3767 121.95 26.4636 121.936 26.5564C121.922 26.6492 121.934 26.7441 121.973 26.83C122.011 26.9158 122.072 26.989 122.151 27.0409C122.229 27.0927 122.32 27.1212 122.414 27.1228H128.532C128.596 27.1274 128.661 27.1176 128.721 27.0941C128.781 27.0705 128.834 27.0338 128.878 26.9867L130.307 25.195C130.621 24.8281 130.395 24.3517 129.986 24.3517Z" fill="#7F187F"/>
<path d="M126.085 6.66681C127.539 6.66681 128.717 5.48914 128.717 4.03641C128.717 2.58368 127.539 1.40601 126.085 1.40601C124.632 1.40601 123.454 2.58368 123.454 4.03641C123.454 5.48914 124.632 6.66681 126.085 6.66681Z" fill="#7F187F"/>
<path d="M149.242 10.2041C149.242 9.95484 149.105 9.70557 148.765 9.70557H148.151V11.3212H148.382V10.7258H148.586L148.995 11.3155H149.267L148.835 10.7027C149.129 10.6807 149.242 10.4303 149.242 10.2041ZM148.382 10.4984V9.90868H148.79C148.827 9.91014 148.862 9.91915 148.895 9.93513C148.928 9.95111 148.957 9.97371 148.98 10.0015C149.004 10.0293 149.021 10.0617 149.031 10.0965C149.041 10.1314 149.044 10.1681 149.04 10.2041C149.044 10.2419 149.04 10.2802 149.028 10.3163C149.016 10.3524 148.996 10.3855 148.971 10.4134C148.945 10.4413 148.913 10.4633 148.878 10.478C148.843 10.4927 148.805 10.4996 148.767 10.4984H148.382Z" fill="#7F187F"/>
<path d="M148.652 9.11608C148.378 9.11608 148.11 9.19728 147.883 9.3494C147.655 9.50152 147.477 9.71774 147.372 9.97071C147.268 10.2237 147.24 10.502 147.294 10.7706C147.347 11.0391 147.479 11.2858 147.673 11.4794C147.866 11.6731 148.113 11.8049 148.382 11.8583C148.65 11.9117 148.929 11.8843 149.182 11.7795C149.435 11.6748 149.651 11.4973 149.803 11.2696C149.956 11.042 150.037 10.7743 150.037 10.5005C150.037 10.1333 149.891 9.7812 149.631 9.52157C149.371 9.26194 149.019 9.11608 148.652 9.11608ZM148.652 11.6773C148.497 11.6783 148.343 11.6486 148.199 11.5897C148.056 11.5308 147.925 11.444 147.816 11.3343C147.706 11.2246 147.619 11.0942 147.56 10.9507C147.501 10.8071 147.471 10.6533 147.472 10.4982C147.469 10.3424 147.497 10.1875 147.555 10.0429C147.613 9.8983 147.7 9.76694 147.81 9.65675C147.92 9.54657 148.052 9.45985 148.196 9.40182C148.341 9.34379 148.496 9.31567 148.652 9.31913C148.965 9.31913 149.265 9.44335 149.486 9.66447C149.707 9.88559 149.831 10.1855 149.831 10.4982C149.831 10.8109 149.707 11.1108 149.486 11.3319C149.265 11.553 148.965 11.6773 148.652 11.6773ZM69.9476 24.4197C68.9274 24.4647 68.4277 23.9894 68.4277 22.8322V14.4888C68.4277 10.8385 65.366 8.52655 61.9188 8.52655C56.5663 8.52655 54.639 11.0647 54.4174 13.8993C54.4136 13.9668 54.4238 14.0344 54.4472 14.0978C54.4706 14.1613 54.5068 14.2193 54.5535 14.2681C54.6003 14.317 54.6566 14.3558 54.7189 14.3821C54.7813 14.4083 54.8483 14.4215 54.916 14.4207H57.5472C57.6687 14.4174 57.7846 14.3692 57.8726 14.2855C57.9606 14.2018 58.0145 14.0884 58.0239 13.9673C58.16 12.4941 59.1571 11.4061 60.8132 11.4061C62.6505 11.4061 63.7618 12.3291 63.7618 14.4438V16.2574H62.8097C59.5207 16.2574 57.253 16.6889 55.7331 17.6418C54.2132 18.5948 53.4423 20.3622 53.4423 22.4261C53.4423 23.9444 53.9639 25.195 55.0072 26.1895C56.0504 27.1839 57.2749 27.6177 58.8859 27.6177C59.8454 27.6188 60.7925 27.4018 61.6557 26.9832C62.5054 26.6037 63.2929 26.098 63.9915 25.4834C64.0303 25.4466 64.0771 25.4193 64.1282 25.4036C64.1794 25.3879 64.2334 25.3843 64.2862 25.393C64.339 25.4017 64.389 25.4226 64.4324 25.4539C64.4758 25.4851 64.5113 25.5261 64.5362 25.5734C65.2852 26.8886 66.1011 27.3201 67.666 27.3201C69.0728 27.3201 69.7525 26.0049 70.3653 25.2111C70.5823 24.8962 70.333 24.3966 69.9476 24.4197ZM63.7791 23.0826H63.7561C63.7561 23.198 63.5749 23.3537 63.5068 23.4218C63.078 23.7821 62.6053 24.0868 62.1 24.3286C61.6418 24.5242 61.1462 24.6172 60.6482 24.6008C59.9234 24.6008 59.1975 24.3286 58.7209 23.8071C58.2378 23.2743 57.9779 22.5763 57.995 21.8574C57.995 20.7695 58.4036 20.0438 59.2195 19.4992C60.0354 18.9547 61.3741 18.7055 62.9817 18.7055H63.7757L63.7791 23.0826ZM120.12 24.4197C119.1 24.4647 118.6 23.9894 118.6 22.8322V14.4888C118.6 10.8385 115.539 8.52655 112.091 8.52655C106.739 8.52655 104.812 11.0647 104.59 13.8993C104.586 13.9669 104.596 14.0346 104.62 14.0981C104.643 14.1616 104.68 14.2197 104.727 14.2686C104.773 14.3175 104.83 14.3562 104.892 14.3824C104.955 14.4086 105.022 14.4216 105.09 14.4207H107.72C107.841 14.4174 107.957 14.3692 108.045 14.2855C108.133 14.2018 108.187 14.0884 108.196 13.9673C108.333 12.4941 109.331 11.4061 110.986 11.4061C112.823 11.4061 113.934 12.3291 113.934 14.4438V16.2574H112.982C109.693 16.2574 107.426 16.6889 105.906 17.6418C104.386 18.5948 103.604 20.361 103.604 22.425C103.604 23.9432 104.126 25.1938 105.169 26.1883C106.213 27.1828 107.437 27.6166 109.048 27.6166C110.008 27.6177 110.955 27.4007 111.818 26.982C112.668 26.6023 113.456 26.0967 114.155 25.4823C114.194 25.4457 114.24 25.4186 114.291 25.403C114.342 25.3875 114.396 25.3839 114.449 25.3926C114.502 25.4013 114.551 25.4221 114.595 25.4532C114.638 25.4844 114.673 25.5251 114.698 25.5722C115.447 26.8874 116.263 27.3189 117.828 27.3189C119.235 27.3189 119.915 26.0037 120.528 25.21C120.755 24.8962 120.506 24.3966 120.12 24.4197ZM113.952 23.0826H113.929C113.929 23.198 113.747 23.3537 113.679 23.4218C113.251 23.7821 112.778 24.0868 112.273 24.3286C111.815 24.5241 111.32 24.6171 110.822 24.6008C110.096 24.6008 109.37 24.3286 108.894 23.8071C108.41 23.2743 108.15 22.5763 108.168 21.8574C108.168 20.7695 108.576 20.0438 109.393 19.4992C110.21 18.9547 111.547 18.7055 113.158 18.7055H113.952V23.0826ZM144.991 8.59693C144.748 8.46771 144.136 8.41003 143.606 8.41003C142.747 8.41003 142.07 8.5254 141.478 8.77805L141.431 8.79882C141.207 8.89953 140.995 9.02203 140.795 9.16454C140.05 9.62741 139.382 10.2035 138.815 10.872C138.815 10.872 138.56 11.0635 138.516 10.7405V9.08609C138.514 8.95691 138.462 8.83353 138.371 8.74218C138.279 8.65083 138.156 8.59872 138.027 8.59693H134.512C134.443 8.59693 134.374 8.6126 134.312 8.64276C134.249 8.67293 134.194 8.71681 134.151 8.77113C134.151 8.77113 133.049 10.1486 132.687 10.617C132.472 10.8916 132.602 11.4142 133.072 11.4142H133.511C133.602 11.4157 133.689 11.4527 133.754 11.5172C133.818 11.5818 133.855 11.669 133.857 11.7603V23.9894C133.858 24.0862 133.83 24.1812 133.776 24.2617C133.43 24.6874 132.552 25.7937 132.122 26.3383C132.067 26.4101 132.032 26.496 132.022 26.5864C132.012 26.6768 132.028 26.7681 132.067 26.8502C132.106 26.9324 132.167 27.0021 132.243 27.0516C132.319 27.1012 132.408 27.1286 132.499 27.1309H140.073C140.202 27.1309 140.327 27.0793 140.419 26.9876C140.51 26.8959 140.562 26.7714 140.562 26.6417V24.82C140.562 24.7558 140.549 24.6922 140.525 24.6328C140.5 24.5735 140.464 24.5196 140.419 24.4741C140.373 24.4287 140.319 24.3927 140.26 24.3681C140.201 24.3435 140.137 24.3309 140.073 24.3309H138.87C138.778 24.3309 138.69 24.2944 138.625 24.2295C138.56 24.1646 138.524 24.0766 138.524 23.9848V16.8688C138.662 13.4839 140.682 12.4502 141.653 12.148L141.792 12.1076L141.83 12.0972C142.094 12.0285 142.365 11.9924 142.638 11.9899C143.792 11.9899 144.221 12.163 144.849 12.3233C145.11 12.3902 145.339 12.1041 145.339 11.8342V9.06532C145.334 8.85189 145.162 8.68807 144.991 8.59693ZM103.754 8.66845H98.2566C98.1657 8.66694 98.0792 8.62981 98.0155 8.56507C97.9518 8.50032 97.9161 8.41315 97.9161 8.32235V5.60081C97.9161 4.28676 98.597 2.97156 100.003 2.97156C101.591 2.97156 101.84 4.30868 101.908 5.32969C101.916 5.45318 101.969 5.56943 102.057 5.65685C102.145 5.74427 102.261 5.79691 102.385 5.80501H104.652C104.775 5.79964 104.89 5.74713 104.974 5.6585C105.059 5.56987 105.105 5.45202 105.105 5.32969C105.061 1.92863 102.912 0.477295 99.436 0.477295C97.3264 0.477295 95.9438 1.1349 94.9006 2.40395C93.8573 3.673 93.3334 5.0805 93.3334 7.6186V8.29928C93.3334 8.39008 93.2977 8.47725 93.234 8.54199C93.1703 8.60674 93.0837 8.64387 92.9929 8.64538L83.6128 8.66845C83.5486 8.6663 83.4846 8.67695 83.4246 8.69977C83.3646 8.72259 83.3097 8.75713 83.2632 8.80138C83.2167 8.84562 83.1795 8.89869 83.1537 8.95748C83.1279 9.01626 83.1141 9.07959 83.113 9.14377V10.9758C83.1143 11.1078 83.1673 11.2341 83.2608 11.3273C83.3543 11.4205 83.4807 11.4733 83.6128 11.4742H84.6191C84.6755 11.4748 84.731 11.4891 84.7807 11.516C84.8303 11.5429 84.8726 11.5815 84.9039 11.6285C84.9352 11.6755 84.9545 11.7294 84.9602 11.7855C84.9659 11.8417 84.9577 11.8984 84.9365 11.9507C84.9365 11.9507 82.3514 17.9591 81.3081 20.3622C81.2812 20.424 81.2368 20.4765 81.1804 20.5134C81.124 20.5503 81.0581 20.57 80.9907 20.57C80.9233 20.57 80.8574 20.5503 80.8011 20.5134C80.7447 20.4765 80.7003 20.424 80.6734 20.3622C79.607 17.9395 76.9989 11.9507 76.9989 11.9507C76.9776 11.8984 76.9694 11.8417 76.9751 11.7855C76.9808 11.7294 77.0001 11.6755 77.0314 11.6285C77.0627 11.5815 77.105 11.5429 77.1546 11.516C77.2043 11.4891 77.2598 11.4748 77.3162 11.4742H78.019C78.1515 11.4739 78.2785 11.4214 78.3725 11.3281C78.4665 11.2348 78.5198 11.1082 78.5211 10.9758V9.138C78.5193 9.07432 78.5049 9.01161 78.4788 8.95349C78.4527 8.89537 78.4153 8.84299 78.3689 8.79935C78.3224 8.75571 78.2678 8.72168 78.2082 8.69922C78.1485 8.67676 78.085 8.6663 78.0213 8.66845H69.539C69.4544 8.66974 69.3715 8.6927 69.2982 8.73514C69.225 8.77758 69.1639 8.83809 69.1207 8.91088C69.0775 8.98367 69.0537 9.06632 69.0516 9.15092C69.0495 9.23552 69.0691 9.31926 69.1086 9.39412C69.3579 9.84637 69.9245 10.9124 70.0837 11.2296C70.1254 11.3022 70.1847 11.363 70.2561 11.4066C70.3275 11.4501 70.4087 11.475 70.4923 11.4788H72.1253C72.192 11.4776 72.2577 11.4956 72.3144 11.5308C72.3712 11.566 72.4165 11.6169 72.4449 11.6773C72.4449 11.6773 78.4772 25.2227 78.7045 25.6991C78.9359 26.3038 78.9339 26.9729 78.6988 27.5762C78.4218 28.6826 76.5626 30.6634 75.5401 30.3116C74.8315 30.067 74.7404 28.791 73.9025 28.6283C73.7467 28.6008 73.5861 28.6197 73.4409 28.6826C73.2943 28.7391 71.9233 30.5008 71.6221 30.81C71.547 30.9031 71.506 31.0191 71.506 31.1388C71.506 31.2584 71.547 31.3744 71.6221 31.4676C72.3746 32.2382 73.6348 33.2812 75.4478 33.3492C77.6821 33.4404 79.8932 33.1416 81.9278 29.264C81.9278 29.264 88.4252 13.3928 89.1984 11.6773C89.2315 11.6205 89.2793 11.5738 89.3368 11.5419C89.3943 11.51 89.4593 11.4942 89.525 11.4961H92.9537C93.0445 11.4961 93.1317 11.5318 93.1965 11.5955C93.2612 11.6591 93.2984 11.7457 93.2999 11.8365V24.0344C93.3015 24.1327 93.2698 24.2287 93.2099 24.3066C92.8013 24.8281 91.9843 25.848 91.5769 26.3694C91.518 26.4412 91.4809 26.5284 91.47 26.6206C91.4591 26.7128 91.4748 26.8062 91.5154 26.8897C91.5559 26.9732 91.6196 27.0434 91.6988 27.0918C91.778 27.1403 91.8695 27.1651 91.9623 27.1632H99.6276C99.7595 27.162 99.8858 27.1091 99.9792 27.0159C100.073 26.9228 100.126 26.7967 100.127 26.6648V24.85C100.126 24.7181 100.073 24.592 99.9792 24.4989C99.8858 24.4057 99.7595 24.3528 99.6276 24.3516H98.312C98.2223 24.3499 98.1369 24.3134 98.0736 24.2499C98.0103 24.1864 97.9741 24.1009 97.9727 24.0113V11.8134C97.9727 11.7228 98.0082 11.6358 98.0716 11.5711C98.1351 11.5064 98.2213 11.4691 98.312 11.4673H102.358C102.432 11.4663 102.504 11.4497 102.57 11.4185C102.637 11.3872 102.696 11.3421 102.744 11.2862C103.084 10.8328 103.782 9.92597 104.15 9.4495C104.204 9.3763 104.236 9.28977 104.243 9.19947C104.25 9.10917 104.233 9.01861 104.192 8.9378C104.151 8.85699 104.088 8.78906 104.011 8.74153C103.934 8.694 103.845 8.66871 103.754 8.66845Z" fill="#7F187F"/>
<path d="M21.041 14.5315L19.7184 9.54062C19.6966 9.4574 19.6531 9.38148 19.5922 9.32065C19.5314 9.25983 19.4554 9.21629 19.3722 9.19451L14.3832 7.8747C14.302 7.85395 14.2167 7.85462 14.1358 7.87667C14.0549 7.89871 13.9811 7.94136 13.9216 8.00045L10.5748 11.3461L17.5742 18.3421L20.9209 14.9964C20.9799 14.9362 21.0221 14.8616 21.0431 14.78C21.0642 14.6984 21.0634 14.6127 21.041 14.5315Z" fill="#57C377"/>
<path d="M0.101797 22.1528L1.4255 27.1413C1.44728 27.2245 1.49083 27.3004 1.55168 27.3613C1.61252 27.4221 1.68847 27.4656 1.77172 27.4874L6.76301 28.8107C6.84427 28.8312 6.92946 28.8304 7.01033 28.8084C7.0912 28.7864 7.16502 28.7438 7.22463 28.6849L10.5714 25.3392L3.57435 18.3398L0.227589 21.6855C0.167403 21.7455 0.124087 21.8203 0.102004 21.9023C0.0799199 21.9843 0.0798488 22.0707 0.101797 22.1528Z" fill="#FFC600"/>
<path d="M6.75957 7.87358L1.76828 9.1957C1.68503 9.21748 1.60908 9.26102 1.54824 9.32184C1.48739 9.38267 1.44384 9.45859 1.42206 9.54181L0.10182 14.528C0.0809453 14.6093 0.0815659 14.6945 0.10362 14.7754C0.125675 14.8563 0.168405 14.9301 0.227612 14.9895L3.57437 18.3352L10.5726 11.345L7.22581 7.99933C7.16593 7.93936 7.09135 7.89618 7.00952 7.87411C6.92769 7.85204 6.84149 7.85186 6.75957 7.87358Z" fill="#92DA4D"/>
<path d="M20.8691 21.6382L17.5719 18.3409L10.5726 25.3369L13.8709 28.6341C13.9451 28.7082 14.0373 28.7617 14.1385 28.7892C14.2397 28.8167 14.3464 28.8173 14.4479 28.791L19.3076 27.5024C19.4102 27.4753 19.5037 27.4215 19.5787 27.3465C19.6538 27.2715 19.7075 27.178 19.7346 27.0755L21.0237 22.2185C21.0509 22.1167 21.0509 22.0095 21.0237 21.9077C20.9966 21.8059 20.9433 21.713 20.8691 21.6382Z" fill="#A77AD7"/>
<path d="M10.5725 11.345L3.57434 18.3398L10.5725 25.3369L17.5719 18.3409L10.5725 11.345Z" fill="#7F187F"/>
</g>
<defs>
<clipPath id="clip0_5_760">
<rect width="150" height="32.88" fill="white" transform="translate(0.0588989 0.477295)"/>
</clipPath>
</defs>
</svg>
