<?xml version="1.0" encoding="UTF-8"?>
<!DOCTYPE svg PUBLIC "-//W3C//DTD SVG 1.1//EN" "http://www.w3.org/Graphics/SVG/1.1/DTD/svg11.dtd">
<svg xmlns="http://www.w3.org/2000/svg" version="1.1" width="85px" height="92px" style="shape-rendering:geometricPrecision; text-rendering:geometricPrecision; image-rendering:optimizeQuality; fill-rule:evenodd; clip-rule:evenodd" xmlns:xlink="http://www.w3.org/1999/xlink">
<g><path style="opacity:0.999" fill="#383538" d="M 22.5,19.5 C 29.3253,18.439 35.3253,20.1057 40.5,24.5C 47.6239,18.958 55.2906,18.1246 63.5,22C 70.9005,29.0321 72.4005,37.1988 68,46.5C 59.8641,55.6369 51.3641,64.4702 42.5,73C 41.1667,73.6667 39.8333,73.6667 38.5,73C 30.6667,65.1667 22.8333,57.3333 15,49.5C 7.0393,36.6887 9.5393,26.6887 22.5,19.5 Z M 42.5,63.5 C 41.609,64.1098 40.609,64.4431 39.5,64.5C 32.1717,57.0043 25.005,49.3377 18,41.5C 15.5283,30.3062 20.0283,25.4729 31.5,27C 34.5203,29.0232 36.8536,31.6898 38.5,35C 42.2531,35.926 44.4198,34.426 45,30.5C 50.6667,25.1667 56.3333,25.1667 62,30.5C 65.3333,34.8333 65.3333,39.1667 62,43.5C 55.2973,50.0352 48.7973,56.7018 42.5,63.5 Z"/></g>
<g><path style="opacity:0.871" fill="#9d9c9e" d="M 42.5,63.5 C 41.9473,65.5518 40.9473,65.8852 39.5,64.5C 40.609,64.4431 41.609,64.1098 42.5,63.5 Z"/></g>
</svg>
