<?xml version="1.0" encoding="UTF-8"?>
<!DOCTYPE svg PUBLIC "-//W3C//DTD SVG 1.1//EN" "http://www.w3.org/Graphics/SVG/1.1/DTD/svg11.dtd">
<svg xmlns="http://www.w3.org/2000/svg" version="1.1" width="79px" height="90px" style="shape-rendering:geometricPrecision; text-rendering:geometricPrecision; image-rendering:optimizeQuality; fill-rule:evenodd; clip-rule:evenodd" xmlns:xlink="http://www.w3.org/1999/xlink">
<g><path style="opacity:0.999" fill="#363337" d="M 31.5,13.5 C 50.0755,11.1956 62.2421,18.8622 68,36.5C 70.6706,52.9936 64.5039,64.8269 49.5,72C 31.4597,76.8923 18.293,71.0589 10,54.5C 5.09418,34.3057 12.2608,20.6391 31.5,13.5 Z M 31.5,20.5 C 44.2703,18.0212 53.7703,22.3545 60,33.5C 64.6402,47.2573 60.8068,57.7573 48.5,65C 29.582,69.9258 18.2487,62.7591 14.5,43.5C 15.5832,32.2936 21.2498,24.627 31.5,20.5 Z"/></g>
<g><path style="opacity:1" fill="#545154" d="M 36.5,29.5 C 42.4877,29.664 43.821,32.164 40.5,37C 36.9447,38.1225 34.9447,36.7892 34.5,33C 34.9783,31.6974 35.645,30.5307 36.5,29.5 Z"/></g>
<g><path style="opacity:0.008" fill="#d1d1d2" d="M 36.5,39.5 C 37.0968,38.8614 37.9302,38.528 39,38.5C 40.3756,38.6842 41.2089,39.3509 41.5,40.5C 39.9582,39.6993 38.2915,39.366 36.5,39.5 Z"/></g>
<g><path style="opacity:1" fill="#39373a" d="M 36.5,39.5 C 38.2915,39.366 39.9582,39.6993 41.5,40.5C 42.8223,45.8235 42.6557,51.1569 41,56.5C 39.3333,57.8333 37.6667,57.8333 36,56.5C 35.1816,50.6513 35.3483,44.9846 36.5,39.5 Z"/></g>
</svg>
