<?xml version="1.0" standalone="no"?>
<!DOCTYPE svg PUBLIC "-//W3C//DTD SVG 20010904//EN"
 "http://www.w3.org/TR/2001/REC-SVG-20010904/DTD/svg10.dtd">
<svg version="1.0" xmlns="http://www.w3.org/2000/svg"
 width="83.000000pt" height="77.000000pt" viewBox="0 0 83.000000 77.000000"
 preserveAspectRatio="xMidYMid meet">

<g transform="translate(0.000000,77.000000) scale(0.100000,-0.100000)"
fill="#000000" stroke="none">
<path d="M208 668 c-59 -24 -110 -49 -113 -56 -3 -7 8 -36 23 -65 24 -47 27
-65 32 -182 l5 -130 105 -42 c58 -23 114 -42 125 -43 19 0 188 60 227 81 16 9
18 25 18 132 1 111 3 129 30 197 42 105 35 109 -105 64 -60 -19 -116 -33 -125
-32 -8 2 -28 28 -45 58 -19 34 -38 56 -50 57 -11 2 -68 -16 -127 -39z m131
-44 c6 -15 10 -28 9 -30 -2 -1 -38 -16 -80 -32 -80 -31 -92 -30 -100 12 -2 14
12 24 72 46 41 16 78 29 81 29 3 1 11 -11 18 -25z m258 -75 c-10 -26 -24 -36
-80 -57 -37 -13 -70 -23 -72 -20 -3 2 1 18 7 35 9 25 22 34 72 51 86 29 89 28
73 -9z m-197 -13 c0 -26 -22 -76 -34 -76 -23 0 -107 32 -101 38 7 7 115 50
128 51 4 1 7 -5 7 -13z m-108 -112 l68 -26 0 -89 c0 -49 -3 -89 -7 -89 -3 0
-39 12 -80 27 l-73 28 0 87 c0 63 4 88 12 88 7 0 43 -12 80 -26z m288 -62 l0
-87 -73 -28 c-41 -15 -77 -27 -80 -27 -4 0 -7 40 -7 89 l0 89 68 25 c37 14 73
26 80 26 9 1 12 -23 12 -87z"/>
</g>
</svg>
