<?xml version="1.0" standalone="no"?>
<!DOCTYPE svg PUBLIC "-//W3C//DTD SVG 20010904//EN"
 "http://www.w3.org/TR/2001/REC-SVG-20010904/DTD/svg10.dtd">
<svg version="1.0" xmlns="http://www.w3.org/2000/svg"
 width="73.000000pt" height="83.000000pt" viewBox="0 0 73.000000 83.000000"
 preserveAspectRatio="xMidYMid meet">

<g transform="translate(0.000000,83.000000) scale(0.100000,-0.100000)"
fill="#000000" stroke="none">
<path d="M309 710 c-189 -33 -298 -238 -218 -411 31 -66 92 -129 126 -129 35
0 29 27 -18 72 -52 51 -79 109 -79 176 0 68 21 117 73 170 92 94 240 94 335 0
40 -39 59 -82 77 -170 4 -19 12 -28 25 -28 26 0 33 29 20 85 -37 164 -181 264
-341 235z"/>
<path d="M346 555 c-3 -9 -6 -37 -6 -61 0 -43 -1 -44 -34 -44 -41 0 -65 -23
-46 -45 14 -16 105 -21 128 -6 9 5 12 30 10 87 -3 72 -5 79 -24 82 -13 2 -24
-4 -28 -13z"/>
<path d="M445 370 c-58 -14 -83 -29 -114 -67 -39 -47 -39 -73 0 -118 60 -67
158 -87 237 -46 45 23 92 77 92 106 0 28 -47 83 -88 104 -47 23 -89 30 -127
21z m112 -72 c48 -33 51 -54 14 -92 -28 -28 -38 -31 -91 -31 -53 0 -63 3 -91
31 -37 37 -34 59 13 92 44 30 110 30 155 0z"/>
<path d="M452 278 c-17 -17 -15 -53 3 -68 24 -20 65 3 65 34 0 37 -44 58 -68
34z"/>
</g>
</svg>
