<?xml version="1.0" standalone="no"?>
<!DOCTYPE svg PUBLIC "-//W3C//DTD SVG 20010904//EN"
 "http://www.w3.org/TR/2001/REC-SVG-20010904/DTD/svg10.dtd">
<svg version="1.0" xmlns="http://www.w3.org/2000/svg"
 width="71.000000pt" height="73.000000pt" viewBox="0 0 71.000000 73.000000"
 preserveAspectRatio="xMidYMid meet">

<g transform="translate(0.000000,73.000000) scale(0.100000,-0.100000)"
fill="#000000" stroke="none">
<path d="M295 677 c-159 -53 -246 -191 -215 -344 41 -207 286 -309 455 -189
155 111 175 324 43 457 -68 68 -200 103 -283 76z m160 -61 c130 -55 191 -201
135 -323 -21 -48 -40 -56 -40 -17 0 17 -14 40 -40 66 -39 39 -40 41 -29 78 10
32 9 44 -7 77 -49 99 -184 88 -215 -17 -9 -30 -9 -46 0 -68 11 -27 10 -31 -28
-69 -31 -30 -41 -49 -41 -72 0 -41 -16 -32 -41 23 -54 120 6 266 133 321 43
19 130 19 173 1z m-43 -123 c22 -20 23 -61 1 -85 -34 -38 -103 -11 -103 40 0
54 62 81 102 45z m54 -186 c20 -18 28 -35 31 -74 l5 -50 -41 -16 c-53 -22
-129 -22 -182 0 l-41 16 5 50 c7 75 36 97 127 97 58 0 73 -4 96 -23z"/>
</g>
</svg>
