<svg width="26" height="26" viewBox="0 0 26 26" fill="none" xmlns="http://www.w3.org/2000/svg">
<path d="M13.359 1.04224C11.0103 1.04224 8.71439 1.73869 6.76156 3.04353C4.80872 4.34838 3.28667 6.203 2.38788 8.37287C1.48909 10.5427 1.25393 12.9304 1.71213 15.2339C2.17033 17.5375 3.30131 19.6534 4.96206 21.3141C6.62281 22.9749 8.73873 24.1059 11.0423 24.5641C13.3458 25.0223 15.7334 24.7871 17.9033 23.8883C20.0732 22.9895 21.9278 21.4675 23.2327 19.5146C24.5375 17.5618 25.234 15.2659 25.234 12.9172C25.2306 9.76881 23.9785 6.75028 21.7522 4.524C19.5259 2.29772 16.5074 1.04555 13.359 1.04224ZM7.43395 21.7297V19.0172C7.43725 17.9043 7.88081 16.838 8.66775 16.051C9.45469 15.2641 10.5211 14.8205 11.634 14.8172H15.059C16.1718 14.8205 17.2382 15.2641 18.0252 16.051C18.8121 16.838 19.2557 17.9043 19.259 19.0172V21.7547C17.509 22.9364 15.4456 23.5679 13.334 23.5679C11.2223 23.5679 9.15895 22.9364 7.40895 21.7547L7.43395 21.7297ZM13.359 13.5422C12.7409 13.5422 12.1367 13.359 11.6228 13.0156C11.1089 12.6722 10.7084 12.1841 10.4718 11.6131C10.2353 11.0421 10.1734 10.4138 10.294 9.80758C10.4146 9.20139 10.7122 8.64457 11.1492 8.20753C11.5863 7.77049 12.1431 7.47286 12.7493 7.35228C13.3555 7.2317 13.9838 7.29359 14.5548 7.53011C15.1259 7.76664 15.6139 8.16718 15.9573 8.68108C16.3007 9.19498 16.484 9.79917 16.484 10.4172C16.484 11.246 16.1547 12.0409 15.5687 12.6269C14.9826 13.213 14.1878 13.5422 13.359 13.5422ZM20.5215 20.7422V19.0172C20.5186 17.7726 20.0908 16.5662 19.3088 15.5978C18.5269 14.6294 17.4376 13.9571 16.2215 13.6922C16.6951 13.2879 17.0755 12.7858 17.3366 12.2205C17.5977 11.6551 17.7332 11.04 17.734 10.4172C17.734 9.25691 17.273 8.14412 16.4525 7.32364C15.6321 6.50317 14.5193 6.04224 13.359 6.04224C12.1986 6.04224 11.0858 6.50317 10.2654 7.32364C9.44489 8.14412 8.98395 9.25691 8.98395 10.4172C8.98466 11.04 9.12022 11.6551 9.38131 12.2205C9.64241 12.7858 10.0228 13.2879 10.4965 13.6922C9.28028 13.9571 8.19104 14.6294 7.40906 15.5978C6.62708 16.5662 6.19927 17.7726 6.19645 19.0172V20.7422C4.61378 19.2978 3.50482 17.4086 3.01513 15.3225C2.52545 13.2365 2.67792 11.0512 3.45253 9.05333C4.22715 7.05552 5.58771 5.33859 7.35563 4.1279C9.12355 2.91722 11.2162 2.26936 13.359 2.26936C15.5017 2.26936 17.5944 2.91722 19.3623 4.1279C21.1302 5.33859 22.4908 7.05552 23.2654 9.05333C24.04 11.0512 24.1925 13.2365 23.7028 15.3225C23.2131 17.4086 22.1041 19.2978 20.5215 20.7422Z" fill="#211E22" stroke="#211E22" stroke-width="1.25"/>
</svg>
