<?xml version="1.0" encoding="UTF-8"?>
<!DOCTYPE svg PUBLIC "-//W3C//DTD SVG 1.1//EN" "http://www.w3.org/Graphics/SVG/1.1/DTD/svg11.dtd">
<svg xmlns="http://www.w3.org/2000/svg" version="1.1" width="79px" height="75px" style="shape-rendering:geometricPrecision; text-rendering:geometricPrecision; image-rendering:optimizeQuality; fill-rule:evenodd; clip-rule:evenodd" xmlns:xlink="http://www.w3.org/1999/xlink">
<g><path style="opacity:0.999" fill="#2f2c30" d="M 37.5,6.5 C 48.7219,8.51802 59.5552,11.8514 70,16.5C 70.6667,27.8333 70.6667,39.1667 70,50.5C 60.3314,54.6118 50.3314,57.9451 40,60.5C 30.1869,57.8951 20.5202,54.8951 11,51.5C 10.3333,39.8333 10.3333,28.1667 11,16.5C 19.8766,13.0446 28.7099,9.71124 37.5,6.5 Z M 34.5,14.5 C 35.5,14.5 36.5,14.5 37.5,14.5C 37.5,22.5 37.5,30.5 37.5,38.5C 30.4065,39.5865 23.5731,41.5865 17,44.5C 16.5003,36.5069 16.3336,28.5069 16.5,20.5C 22.784,19.072 28.784,17.072 34.5,14.5 Z M 43.5,14.5 C 50.4375,16.5347 57.2709,18.8681 64,21.5C 64.6667,29.1667 64.6667,36.8333 64,44.5C 57.3976,41.966 50.731,39.6326 44,37.5C 43.5003,29.8406 43.3336,22.1739 43.5,14.5 Z M 39.5,43.5 C 45.1798,45.2264 50.8465,47.0598 56.5,49C 51.2495,50.8125 45.9162,52.3125 40.5,53.5C 35.3573,52.4645 30.3573,50.9645 25.5,49C 30.3056,47.2372 34.9723,45.4039 39.5,43.5 Z"/></g>
</svg>
