<?xml version="1.0" standalone="no"?>
<!DOCTYPE svg PUBLIC "-//W3C//DTD SVG 20010904//EN"
 "http://www.w3.org/TR/2001/REC-SVG-20010904/DTD/svg10.dtd">
<svg version="1.0" xmlns="http://www.w3.org/2000/svg"
 width="71.000000pt" height="67.000000pt" viewBox="0 0 71.000000 67.000000"
 preserveAspectRatio="xMidYMid meet">

<g transform="translate(0.000000,67.000000) scale(0.100000,-0.100000)"
fill="#000000" stroke="none">
<path d="M217 613 c-66 -22 -141 -92 -163 -150 -22 -57 -22 -155 0 -206 25
-58 91 -124 144 -144 54 -20 133 -22 188 -4 35 11 45 10 94 -8 99 -38 113 -26
81 70 -19 57 -19 65 -6 117 19 71 19 86 -1 151 -40 137 -202 220 -337 174z
m168 -63 c54 -26 79 -49 104 -98 25 -49 28 -124 6 -175 -13 -31 -13 -40 0 -78
8 -23 14 -44 12 -46 -2 -2 -23 4 -46 12 -38 13 -46 13 -79 -1 -139 -58 -292
44 -292 194 0 29 6 67 14 85 16 41 71 96 111 113 44 19 123 17 170 -6z"/>
<path d="M269 436 c-7 -14 -23 -26 -40 -30 -32 -6 -39 -35 -14 -56 8 -7 15
-29 15 -49 l0 -37 70 0 70 -1 0 37 c0 21 7 43 15 50 25 21 18 50 -14 56 -17 4
-33 16 -40 30 -6 14 -19 24 -31 24 -12 0 -25 -10 -31 -24z"/>
</g>
</svg>
