<?xml version="1.0" standalone="no"?>
<!DOCTYPE svg PUBLIC "-//W3C//DTD SVG 20010904//EN"
 "http://www.w3.org/TR/2001/REC-SVG-20010904/DTD/svg10.dtd">
<svg version="1.0" xmlns="http://www.w3.org/2000/svg"
 width="482.000000pt" height="81.000000pt" viewBox="0 0 482.000000 81.000000"
 preserveAspectRatio="xMidYMid meet">

<g transform="translate(0.000000,81.000000) scale(0.100000,-0.100000)"
fill="#000000" stroke="none">
<path d="M392 793 c-7 -3 -37 -54 -67 -114 -31 -60 -61 -109 -68 -109 -19 0
-179 -20 -209 -26 -14 -3 -29 -12 -32 -21 -9 -23 11 -51 129 -173 l44 -45 -19
-90 c-41 -192 -30 -203 130 -118 l110 57 114 -59 c98 -52 116 -58 130 -46 21
17 20 56 -4 164 l-20 89 82 88 c101 110 104 114 80 138 -14 14 -47 22 -131 32
l-112 13 -57 111 c-54 105 -69 122 -100 109z"/>
<path d="M1392 793 c-7 -3 -37 -53 -67 -112 l-54 -108 -108 -13 c-59 -7 -116
-16 -125 -22 -28 -14 -21 -50 20 -93 21 -22 59 -63 85 -91 l47 -51 -20 -98
c-38 -185 -30 -193 130 -108 l110 57 114 -59 c98 -52 116 -58 130 -46 21 17
20 38 -4 156 l-20 97 82 88 c101 110 104 114 80 138 -14 14 -47 22 -131 32
l-112 13 -54 107 c-44 87 -73 126 -88 119 -1 0 -8 -3 -15 -6z"/>
<path d="M2392 793 c-7 -3 -37 -53 -67 -112 l-54 -108 -108 -13 c-59 -7 -116
-16 -125 -22 -36 -18 -20 -52 66 -144 l84 -90 -19 -90 c-10 -49 -18 -106 -19
-126 0 -59 23 -58 150 8 l111 57 113 -59 c98 -51 116 -57 130 -45 20 17 20 54
-3 165 l-19 90 84 89 c86 92 102 127 67 145 -10 6 -67 15 -126 22 l-108 13
-54 107 c-44 87 -73 126 -88 119 -1 0 -8 -3 -15 -6z"/>
<path d="M3392 793 c-7 -3 -37 -53 -67 -113 l-54 -107 -112 -13 c-84 -10 -117
-18 -131 -32 -24 -24 -21 -28 80 -138 l82 -88 -20 -97 c-38 -185 -30 -192 129
-109 l110 58 114 -59 c99 -52 117 -58 131 -46 21 17 20 37 -4 155 l-21 97 86
92 c87 93 103 127 68 145 -10 6 -67 15 -126 22 l-108 13 -54 107 c-44 87 -73
126 -88 119 -1 0 -8 -3 -15 -6z"/>
<path d="M4382 788 c-5 -7 -32 -58 -60 -114 l-51 -101 -112 -13 c-84 -10 -117
-18 -131 -32 -24 -24 -21 -28 79 -137 l81 -87 -19 -90 c-10 -49 -18 -106 -19
-126 0 -59 23 -58 151 9 l112 58 113 -60 c96 -50 115 -57 128 -46 21 17 20 39
-4 156 l-20 97 49 57 c27 31 65 72 85 90 35 34 47 73 25 86 -9 6 -192 34 -226
35 -7 0 -37 49 -67 109 -59 116 -86 142 -114 109z m121 -280 c6 -3 48 -12 94
-18 46 -7 83 -13 83 -15 0 -2 -29 -34 -65 -72 -35 -37 -64 -75 -64 -83 0 -8 6
-44 14 -80 8 -36 14 -71 15 -78 0 -7 -33 5 -84 30 l-84 43 -1 220 0 220 41
-80 c22 -44 45 -83 51 -87z"/>
</g>
</svg>
