<?xml version="1.0" encoding="UTF-8"?>
<!DOCTYPE svg PUBLIC "-//W3C//DTD SVG 1.1//EN" "http://www.w3.org/Graphics/SVG/1.1/DTD/svg11.dtd">
<svg xmlns="http://www.w3.org/2000/svg" version="1.1" width="66px" height="71px" style="shape-rendering:geometricPrecision; text-rendering:geometricPrecision; image-rendering:optimizeQuality; fill-rule:evenodd; clip-rule:evenodd" xmlns:xlink="http://www.w3.org/1999/xlink">
<g><path style="opacity:0.998" fill="#2a272b" d="M 15.5,35.5 C 16.8852,34.0527 16.5518,33.0527 14.5,32.5C 11.6933,31.0201 10.0266,28.6868 9.5,25.5C 10.4348,22.5289 11.2681,19.5289 12,16.5C 16.287,13.1817 21.1204,11.6817 26.5,12C 28.6829,14.3504 31.0163,16.517 33.5,18.5C 35.9837,16.517 38.3171,14.3504 40.5,12C 44.6203,11.6934 48.6203,12.3601 52.5,14C 53.6667,14.5 54.5,15.3333 55,16.5C 56.9621,21.0055 57.6288,25.6722 57,30.5C 54.7911,32.3734 52.9578,34.54 51.5,37C 53.7287,39.7194 55.7287,42.5527 57.5,45.5C 56.5452,49.4968 55.2119,53.3301 53.5,57C 49.9484,57.6286 46.4484,58.4619 43,59.5C 39.739,57.7568 36.5723,55.7568 33.5,53.5C 31.3501,55.1491 29.3501,56.9824 27.5,59C 22.2455,59.4379 17.2455,58.4379 12.5,56C 9.93531,50.9533 9.43531,45.7866 11,40.5C 12.736,38.9368 14.236,37.2701 15.5,35.5 Z M 38.5,26.5 C 40.5797,30.0865 43.2463,33.2532 46.5,36C 45.944,36.3826 45.6107,36.8826 45.5,37.5C 43.4131,38.5846 42.0798,40.2512 41.5,42.5C 38.853,44.8109 36.1864,47.1442 33.5,49.5C 32.1482,48.4756 30.8149,47.4756 29.5,46.5C 27.5698,42.8998 24.9031,39.8998 21.5,37.5C 20.8902,36.609 20.5569,35.609 20.5,34.5C 25.1727,30.4939 29.5061,26.1606 33.5,21.5C 35.4014,23.0063 37.0681,24.6729 38.5,26.5 Z"/></g>
<g><path style="opacity:0.008" fill="#e5e5e5" d="M 38.5,26.5 C 41.9619,29.1312 44.9619,32.2978 47.5,36C 47.1639,37.0299 46.4972,37.5299 45.5,37.5C 45.6107,36.8826 45.944,36.3826 46.5,36C 43.2463,33.2532 40.5797,30.0865 38.5,26.5 Z"/></g>
<g><path style="opacity:0.541" fill="#a4a3a5" d="M 14.5,32.5 C 16.5518,33.0527 16.8852,34.0527 15.5,35.5C 15.4431,34.391 15.1098,33.391 14.5,32.5 Z"/></g>
<g><path style="opacity:0.031" fill="#cacaca" d="M 20.5,34.5 C 20.5569,35.609 20.8902,36.609 21.5,37.5C 18.2855,37.0135 17.9522,36.0135 20.5,34.5 Z"/></g>
<g><path style="opacity:1" fill="#b1b0b1" d="M 21.5,37.5 C 24.9031,39.8998 27.5698,42.8998 29.5,46.5C 26.0969,44.1002 23.4302,41.1002 21.5,37.5 Z"/></g>
<g><path style="opacity:1" fill="#8a888a" d="M 45.5,37.5 C 44.9202,39.7488 43.5869,41.4154 41.5,42.5C 42.0798,40.2512 43.4131,38.5846 45.5,37.5 Z"/></g>
</svg>
